<svg xmlns="http://www.w3.org/2000/svg" width="1200" height="1000" viewBox="0 0 1200 1000" style="background-color: rgb(255, 255, 255);"><text x="600" y="20" text-anchor="middle" font-size="16px" font-weight="bold" fill="#000">Workspace Overview: 104 Nodes, 103 Relationships</text><text x="600" y="40" text-anchor="middle" font-size="14px" fill="#28a745">Workspace Quality Score: 100%</text><g><path d="M0,564.706C250,564.706,250,356.863,500,356.863" fill="none" stroke="#ccc" stroke-width="1.5"></path><path d="M0,564.706C250,564.706,250,364.706,500,364.706" fill="none" stroke="#ccc" stroke-width="1.5"></path><path d="M0,564.706C250,564.706,250,737.255,500,737.255" fill="none" stroke="#ccc" stroke-width="1.5"></path><path d="M0,564.706C250,564.706,250,772.549,500,772.549" fill="none" stroke="#ccc" stroke-width="1.5"></path><path d="M500,364.706C750,364.706,750,7.843,1000,7.843" fill="none" stroke="#ccc" stroke-width="1.5"></path><path d="M500,364.706C750,364.706,750,15.686,1000,15.686" fill="none" stroke="#ccc" stroke-width="1.5"></path><path d="M500,364.706C750,364.706,750,23.529,1000,23.529" fill="none" stroke="#ccc" stroke-width="1.5"></path><path d="M500,364.706C750,364.706,750,31.373,1000,31.373" fill="none" stroke="#ccc" stroke-width="1.5"></path><path d="M500,364.706C750,364.706,750,39.216,1000,39.216" fill="none" stroke="#ccc" stroke-width="1.5"></path><path d="M500,364.706C750,364.706,750,47.059,1000,47.059" fill="none" stroke="#ccc" stroke-width="1.5"></path><path d="M500,364.706C750,364.706,750,54.902,1000,54.902" fill="none" stroke="#ccc" stroke-width="1.5"></path><path d="M500,364.706C750,364.706,750,62.745,1000,62.745" fill="none" stroke="#ccc" stroke-width="1.5"></path><path d="M500,364.706C750,364.706,750,70.588,1000,70.588" fill="none" stroke="#ccc" stroke-width="1.5"></path><path d="M500,364.706C750,364.706,750,78.431,1000,78.431" fill="none" stroke="#ccc" stroke-width="1.5"></path><path d="M500,364.706C750,364.706,750,86.275,1000,86.275" fill="none" stroke="#ccc" stroke-width="1.5"></path><path d="M500,364.706C750,364.706,750,94.118,1000,94.118" fill="none" stroke="#ccc" stroke-width="1.5"></path><path d="M500,364.706C750,364.706,750,101.961,1000,101.961" fill="none" stroke="#ccc" stroke-width="1.5"></path><path d="M500,364.706C750,364.706,750,109.804,1000,109.804" fill="none" stroke="#ccc" stroke-width="1.5"></path><path d="M500,364.706C750,364.706,750,117.647,1000,117.647" fill="none" stroke="#ccc" stroke-width="1.5"></path><path d="M500,364.706C750,364.706,750,125.49,1000,125.49" fill="none" stroke="#ccc" stroke-width="1.5"></path><path d="M500,364.706C750,364.706,750,133.333,1000,133.333" fill="none" stroke="#ccc" stroke-width="1.5"></path><path d="M500,364.706C750,364.706,750,141.176,1000,141.176" fill="none" stroke="#ccc" stroke-width="1.5"></path><path d="M500,364.706C750,364.706,750,149.02,1000,149.02" fill="none" stroke="#ccc" stroke-width="1.5"></path><path d="M500,364.706C750,364.706,750,156.863,1000,156.863" fill="none" stroke="#ccc" stroke-width="1.5"></path><path d="M500,364.706C750,364.706,750,164.706,1000,164.706" fill="none" stroke="#ccc" stroke-width="1.5"></path><path d="M500,364.706C750,364.706,750,172.549,1000,172.549" fill="none" stroke="#ccc" stroke-width="1.5"></path><path d="M500,364.706C750,364.706,750,180.392,1000,180.392" fill="none" stroke="#ccc" stroke-width="1.5"></path><path d="M500,364.706C750,364.706,750,188.235,1000,188.235" fill="none" stroke="#ccc" stroke-width="1.5"></path><path d="M500,364.706C750,364.706,750,196.078,1000,196.078" fill="none" stroke="#ccc" stroke-width="1.5"></path><path d="M500,364.706C750,364.706,750,203.922,1000,203.922" fill="none" stroke="#ccc" stroke-width="1.5"></path><path d="M500,364.706C750,364.706,750,211.765,1000,211.765" fill="none" stroke="#ccc" stroke-width="1.5"></path><path d="M500,364.706C750,364.706,750,219.608,1000,219.608" fill="none" stroke="#ccc" stroke-width="1.5"></path><path d="M500,364.706C750,364.706,750,227.451,1000,227.451" fill="none" stroke="#ccc" stroke-width="1.5"></path><path d="M500,364.706C750,364.706,750,235.294,1000,235.294" fill="none" stroke="#ccc" stroke-width="1.5"></path><path d="M500,364.706C750,364.706,750,243.137,1000,243.137" fill="none" stroke="#ccc" stroke-width="1.5"></path><path d="M500,364.706C750,364.706,750,250.98,1000,250.98" fill="none" stroke="#ccc" stroke-width="1.5"></path><path d="M500,364.706C750,364.706,750,258.824,1000,258.824" fill="none" stroke="#ccc" stroke-width="1.5"></path><path d="M500,364.706C750,364.706,750,266.667,1000,266.667" fill="none" stroke="#ccc" stroke-width="1.5"></path><path d="M500,364.706C750,364.706,750,274.51,1000,274.51" fill="none" stroke="#ccc" stroke-width="1.5"></path><path d="M500,364.706C750,364.706,750,282.353,1000,282.353" fill="none" stroke="#ccc" stroke-width="1.5"></path><path d="M500,364.706C750,364.706,750,290.196,1000,290.196" fill="none" stroke="#ccc" stroke-width="1.5"></path><path d="M500,364.706C750,364.706,750,298.039,1000,298.039" fill="none" stroke="#ccc" stroke-width="1.5"></path><path d="M500,364.706C750,364.706,750,305.882,1000,305.882" fill="none" stroke="#ccc" stroke-width="1.5"></path><path d="M500,364.706C750,364.706,750,313.725,1000,313.725" fill="none" stroke="#ccc" stroke-width="1.5"></path><path d="M500,364.706C750,364.706,750,321.569,1000,321.569" fill="none" stroke="#ccc" stroke-width="1.5"></path><path d="M500,364.706C750,364.706,750,329.412,1000,329.412" fill="none" stroke="#ccc" stroke-width="1.5"></path><path d="M500,364.706C750,364.706,750,337.255,1000,337.255" fill="none" stroke="#ccc" stroke-width="1.5"></path><path d="M500,364.706C750,364.706,750,345.098,1000,345.098" fill="none" stroke="#ccc" stroke-width="1.5"></path><path d="M500,364.706C750,364.706,750,352.941,1000,352.941" fill="none" stroke="#ccc" stroke-width="1.5"></path><path d="M500,364.706C750,364.706,750,360.784,1000,360.784" fill="none" stroke="#ccc" stroke-width="1.5"></path><path d="M500,364.706C750,364.706,750,368.627,1000,368.627" fill="none" stroke="#ccc" stroke-width="1.5"></path><path d="M500,364.706C750,364.706,750,376.471,1000,376.471" fill="none" stroke="#ccc" stroke-width="1.5"></path><path d="M500,364.706C750,364.706,750,384.314,1000,384.314" fill="none" stroke="#ccc" stroke-width="1.5"></path><path d="M500,364.706C750,364.706,750,392.157,1000,392.157" fill="none" stroke="#ccc" stroke-width="1.5"></path><path d="M500,364.706C750,364.706,750,400,1000,400" fill="none" stroke="#ccc" stroke-width="1.5"></path><path d="M500,364.706C750,364.706,750,407.843,1000,407.843" fill="none" stroke="#ccc" stroke-width="1.5"></path><path d="M500,364.706C750,364.706,750,415.686,1000,415.686" fill="none" stroke="#ccc" stroke-width="1.5"></path><path d="M500,364.706C750,364.706,750,423.529,1000,423.529" fill="none" stroke="#ccc" stroke-width="1.5"></path><path d="M500,364.706C750,364.706,750,431.373,1000,431.373" fill="none" stroke="#ccc" stroke-width="1.5"></path><path d="M500,364.706C750,364.706,750,439.216,1000,439.216" fill="none" stroke="#ccc" stroke-width="1.5"></path><path d="M500,364.706C750,364.706,750,447.059,1000,447.059" fill="none" stroke="#ccc" stroke-width="1.5"></path><path d="M500,364.706C750,364.706,750,454.902,1000,454.902" fill="none" stroke="#ccc" stroke-width="1.5"></path><path d="M500,364.706C750,364.706,750,462.745,1000,462.745" fill="none" stroke="#ccc" stroke-width="1.5"></path><path d="M500,364.706C750,364.706,750,470.588,1000,470.588" fill="none" stroke="#ccc" stroke-width="1.5"></path><path d="M500,364.706C750,364.706,750,478.431,1000,478.431" fill="none" stroke="#ccc" stroke-width="1.5"></path><path d="M500,364.706C750,364.706,750,486.275,1000,486.275" fill="none" stroke="#ccc" stroke-width="1.5"></path><path d="M500,364.706C750,364.706,750,494.118,1000,494.118" fill="none" stroke="#ccc" stroke-width="1.5"></path><path d="M500,364.706C750,364.706,750,501.961,1000,501.961" fill="none" stroke="#ccc" stroke-width="1.5"></path><path d="M500,364.706C750,364.706,750,509.804,1000,509.804" fill="none" stroke="#ccc" stroke-width="1.5"></path><path d="M500,364.706C750,364.706,750,517.647,1000,517.647" fill="none" stroke="#ccc" stroke-width="1.5"></path><path d="M500,364.706C750,364.706,750,525.49,1000,525.49" fill="none" stroke="#ccc" stroke-width="1.5"></path><path d="M500,364.706C750,364.706,750,533.333,1000,533.333" fill="none" stroke="#ccc" stroke-width="1.5"></path><path d="M500,364.706C750,364.706,750,541.176,1000,541.176" fill="none" stroke="#ccc" stroke-width="1.5"></path><path d="M500,364.706C750,364.706,750,549.02,1000,549.02" fill="none" stroke="#ccc" stroke-width="1.5"></path><path d="M500,364.706C750,364.706,750,556.863,1000,556.863" fill="none" stroke="#ccc" stroke-width="1.5"></path><path d="M500,364.706C750,364.706,750,564.706,1000,564.706" fill="none" stroke="#ccc" stroke-width="1.5"></path><path d="M500,364.706C750,364.706,750,572.549,1000,572.549" fill="none" stroke="#ccc" stroke-width="1.5"></path><path d="M500,364.706C750,364.706,750,580.392,1000,580.392" fill="none" stroke="#ccc" stroke-width="1.5"></path><path d="M500,364.706C750,364.706,750,588.235,1000,588.235" fill="none" stroke="#ccc" stroke-width="1.5"></path><path d="M500,364.706C750,364.706,750,596.078,1000,596.078" fill="none" stroke="#ccc" stroke-width="1.5"></path><path d="M500,364.706C750,364.706,750,603.922,1000,603.922" fill="none" stroke="#ccc" stroke-width="1.5"></path><path d="M500,364.706C750,364.706,750,611.765,1000,611.765" fill="none" stroke="#ccc" stroke-width="1.5"></path><path d="M500,364.706C750,364.706,750,619.608,1000,619.608" fill="none" stroke="#ccc" stroke-width="1.5"></path><path d="M500,364.706C750,364.706,750,627.451,1000,627.451" fill="none" stroke="#ccc" stroke-width="1.5"></path><path d="M500,364.706C750,364.706,750,635.294,1000,635.294" fill="none" stroke="#ccc" stroke-width="1.5"></path><path d="M500,364.706C750,364.706,750,643.137,1000,643.137" fill="none" stroke="#ccc" stroke-width="1.5"></path><path d="M500,364.706C750,364.706,750,650.98,1000,650.98" fill="none" stroke="#ccc" stroke-width="1.5"></path><path d="M500,364.706C750,364.706,750,658.824,1000,658.824" fill="none" stroke="#ccc" stroke-width="1.5"></path><path d="M500,364.706C750,364.706,750,666.667,1000,666.667" fill="none" stroke="#ccc" stroke-width="1.5"></path><path d="M500,364.706C750,364.706,750,674.51,1000,674.51" fill="none" stroke="#ccc" stroke-width="1.5"></path><path d="M500,364.706C750,364.706,750,682.353,1000,682.353" fill="none" stroke="#ccc" stroke-width="1.5"></path><path d="M500,364.706C750,364.706,750,690.196,1000,690.196" fill="none" stroke="#ccc" stroke-width="1.5"></path><path d="M500,364.706C750,364.706,750,698.039,1000,698.039" fill="none" stroke="#ccc" stroke-width="1.5"></path><path d="M500,364.706C750,364.706,750,705.882,1000,705.882" fill="none" stroke="#ccc" stroke-width="1.5"></path><path d="M500,364.706C750,364.706,750,713.725,1000,713.725" fill="none" stroke="#ccc" stroke-width="1.5"></path><path d="M500,364.706C750,364.706,750,721.569,1000,721.569" fill="none" stroke="#ccc" stroke-width="1.5"></path><path d="M500,737.255C750,737.255,750,737.255,1000,737.255" fill="none" stroke="#ccc" stroke-width="1.5"></path><path d="M500,772.549C750,772.549,750,752.941,1000,752.941" fill="none" stroke="#ccc" stroke-width="1.5"></path><path d="M500,772.549C750,772.549,750,760.784,1000,760.784" fill="none" stroke="#ccc" stroke-width="1.5"></path><path d="M500,772.549C750,772.549,750,768.627,1000,768.627" fill="none" stroke="#ccc" stroke-width="1.5"></path><path d="M500,772.549C750,772.549,750,776.471,1000,776.471" fill="none" stroke="#ccc" stroke-width="1.5"></path><path d="M500,772.549C750,772.549,750,784.314,1000,784.314" fill="none" stroke="#ccc" stroke-width="1.5"></path><path d="M500,772.549C750,772.549,750,792.157,1000,792.157" fill="none" stroke="#ccc" stroke-width="1.5"></path></g><g><g transform="translate(0,564.7058823529411)"><rect width="60" height="30" x="-30" y="-15" stroke="#000" stroke-width="1"></rect><text dy="5" x="0" text-anchor="middle" font-size="10px" fill="#000">Workspace Root</text><text dy="20" x="0" text-anchor="middle" font-size="8px" fill="#555">Children: 4</text></g><g transform="translate(500,356.8627450980392)"><rect width="60" height="30" x="-30" y="-15" fill="rgb(40, 167, 69)" stroke="#000" stroke-width="1"></rect><text dy="5" x="0" text-anchor="middle" font-size="10px" fill="#000">Unnamed page</text><text dy="20" x="0" text-anchor="middle" font-size="8px" fill="#555">Children: 0</text></g><g transform="translate(500,364.70588235294116)"><rect width="80" height="30" x="-40" y="-15" stroke="#000" stroke-width="1"></rect><text dy="5" x="0" text-anchor="middle" font-size="10px" fill="#000">Database b64a323a-7354-45be-bc1d-18c13cecd930</text><text dy="20" x="0" text-anchor="middle" font-size="8px" fill="#555">Children: 92</text></g><g transform="translate(500,737.2549019607843)"><rect width="80" height="30" x="-40" y="-15" stroke="#000" stroke-width="1"></rect><text dy="5" x="0" text-anchor="middle" font-size="10px" fill="#000">Database 2c091474-c961-44dc-8e00-ec1f222bd3d3</text><text dy="20" x="0" text-anchor="middle" font-size="8px" fill="#555">Children: 1</text></g><g transform="translate(500,772.5490196078431)"><rect width="80" height="30" x="-40" y="-15" stroke="#000" stroke-width="1"></rect><text dy="5" x="0" text-anchor="middle" font-size="10px" fill="#000">Database 4f265c2e-0c67-4c25-b499-7765385951f9</text><text dy="20" x="0" text-anchor="middle" font-size="8px" fill="#555">Children: 6</text></g><g transform="translate(1000,7.8431372549019605)"><rect width="60" height="30" x="-30" y="-15" fill="rgb(40, 167, 69)" stroke="#000" stroke-width="1"></rect><text dy="5" x="0" text-anchor="middle" font-size="10px" fill="#000">Unnamed page</text><text dy="20" x="0" text-anchor="middle" font-size="8px" fill="#555">Children: 0</text></g><g transform="translate(1000,15.686274509803921)"><rect width="60" height="30" x="-30" y="-15" fill="rgb(47, 168, 67)" stroke="#000" stroke-width="1"></rect><text dy="5" x="0" text-anchor="middle" font-size="10px" fill="#000">Unnamed page</text><text dy="20" x="0" text-anchor="middle" font-size="8px" fill="#555">Children: 0</text></g><g transform="translate(1000,23.52941176470588)"><rect width="60" height="30" x="-30" y="-15" fill="rgb(54, 169, 65)" stroke="#000" stroke-width="1"></rect><text dy="5" x="0" text-anchor="middle" font-size="10px" fill="#000">Unnamed page</text><text dy="20" x="0" text-anchor="middle" font-size="8px" fill="#555">Children: 0</text></g><g transform="translate(1000,31.372549019607842)"><rect width="60" height="30" x="-30" y="-15" fill="rgb(62, 170, 63)" stroke="#000" stroke-width="1"></rect><text dy="5" x="0" text-anchor="middle" font-size="10px" fill="#000">Unnamed page</text><text dy="20" x="0" text-anchor="middle" font-size="8px" fill="#555">Children: 0</text></g><g transform="translate(1000,39.2156862745098)"><rect width="60" height="30" x="-30" y="-15" fill="rgb(69, 170, 61)" stroke="#000" stroke-width="1"></rect><text dy="5" x="0" text-anchor="middle" font-size="10px" fill="#000">Unnamed page</text><text dy="20" x="0" text-anchor="middle" font-size="8px" fill="#555">Children: 0</text></g><g transform="translate(1000,47.05882352941176)"><rect width="60" height="30" x="-30" y="-15" fill="rgb(76, 171, 59)" stroke="#000" stroke-width="1"></rect><text dy="5" x="0" text-anchor="middle" font-size="10px" fill="#000">Unnamed page</text><text dy="20" x="0" text-anchor="middle" font-size="8px" fill="#555">Children: 0</text></g><g transform="translate(1000,54.90196078431372)"><rect width="60" height="30" x="-30" y="-15" fill="rgb(83, 172, 57)" stroke="#000" stroke-width="1"></rect><text dy="5" x="0" text-anchor="middle" font-size="10px" fill="#000">Unnamed page</text><text dy="20" x="0" text-anchor="middle" font-size="8px" fill="#555">Children: 0</text></g><g transform="translate(1000,62.745098039215684)"><rect width="60" height="30" x="-30" y="-15" fill="rgb(90, 173, 55)" stroke="#000" stroke-width="1"></rect><text dy="5" x="0" text-anchor="middle" font-size="10px" fill="#000">Unnamed page</text><text dy="20" x="0" text-anchor="middle" font-size="8px" fill="#555">Children: 0</text></g><g transform="translate(1000,70.58823529411764)"><rect width="60" height="30" x="-30" y="-15" fill="rgb(97, 174, 52)" stroke="#000" stroke-width="1"></rect><text dy="5" x="0" text-anchor="middle" font-size="10px" fill="#000">Unnamed page</text><text dy="20" x="0" text-anchor="middle" font-size="8px" fill="#555">Children: 0</text></g><g transform="translate(1000,78.4313725490196)"><rect width="60" height="30" x="-30" y="-15" fill="rgb(105, 175, 50)" stroke="#000" stroke-width="1"></rect><text dy="5" x="0" text-anchor="middle" font-size="10px" fill="#000">Unnamed page</text><text dy="20" x="0" text-anchor="middle" font-size="8px" fill="#555">Children: 0</text></g><g transform="translate(1000,86.27450980392156)"><rect width="60" height="30" x="-30" y="-15" fill="rgb(112, 176, 48)" stroke="#000" stroke-width="1"></rect><text dy="5" x="0" text-anchor="middle" font-size="10px" fill="#000">Unnamed page</text><text dy="20" x="0" text-anchor="middle" font-size="8px" fill="#555">Children: 0</text></g><g transform="translate(1000,94.11764705882352)"><rect width="60" height="30" x="-30" y="-15" fill="rgb(119, 177, 46)" stroke="#000" stroke-width="1"></rect><text dy="5" x="0" text-anchor="middle" font-size="10px" fill="#000">Unnamed page</text><text dy="20" x="0" text-anchor="middle" font-size="8px" fill="#555">Children: 0</text></g><g transform="translate(1000,101.96078431372548)"><rect width="60" height="30" x="-30" y="-15" fill="rgb(126, 177, 44)" stroke="#000" stroke-width="1"></rect><text dy="5" x="0" text-anchor="middle" font-size="10px" fill="#000">Unnamed page</text><text dy="20" x="0" text-anchor="middle" font-size="8px" fill="#555">Children: 0</text></g><g transform="translate(1000,109.80392156862744)"><rect width="60" height="30" x="-30" y="-15" fill="rgb(133, 178, 42)" stroke="#000" stroke-width="1"></rect><text dy="5" x="0" text-anchor="middle" font-size="10px" fill="#000">Unnamed page</text><text dy="20" x="0" text-anchor="middle" font-size="8px" fill="#555">Children: 0</text></g><g transform="translate(1000,117.6470588235294)"><rect width="60" height="30" x="-30" y="-15" fill="rgb(140, 179, 40)" stroke="#000" stroke-width="1"></rect><text dy="5" x="0" text-anchor="middle" font-size="10px" fill="#000">Unnamed page</text><text dy="20" x="0" text-anchor="middle" font-size="8px" fill="#555">Children: 0</text></g><g transform="translate(1000,125.49019607843137)"><rect width="60" height="30" x="-30" y="-15" fill="rgb(148, 180, 38)" stroke="#000" stroke-width="1"></rect><text dy="5" x="0" text-anchor="middle" font-size="10px" fill="#000">Unnamed page</text><text dy="20" x="0" text-anchor="middle" font-size="8px" fill="#555">Children: 0</text></g><g transform="translate(1000,133.33333333333331)"><rect width="60" height="30" x="-30" y="-15" fill="rgb(155, 181, 36)" stroke="#000" stroke-width="1"></rect><text dy="5" x="0" text-anchor="middle" font-size="10px" fill="#000">Unnamed page</text><text dy="20" x="0" text-anchor="middle" font-size="8px" fill="#555">Children: 0</text></g><g transform="translate(1000,141.17647058823528)"><rect width="60" height="30" x="-30" y="-15" fill="rgb(162, 182, 34)" stroke="#000" stroke-width="1"></rect><text dy="5" x="0" text-anchor="middle" font-size="10px" fill="#000">Unnamed page</text><text dy="20" x="0" text-anchor="middle" font-size="8px" fill="#555">Children: 0</text></g><g transform="translate(1000,149.01960784313724)"><rect width="60" height="30" x="-30" y="-15" fill="rgb(169, 183, 32)" stroke="#000" stroke-width="1"></rect><text dy="5" x="0" text-anchor="middle" font-size="10px" fill="#000">Unnamed page</text><text dy="20" x="0" text-anchor="middle" font-size="8px" fill="#555">Children: 0</text></g><g transform="translate(1000,156.8627450980392)"><rect width="60" height="30" x="-30" y="-15" fill="rgb(176, 183, 30)" stroke="#000" stroke-width="1"></rect><text dy="5" x="0" text-anchor="middle" font-size="10px" fill="#000">Unnamed page</text><text dy="20" x="0" text-anchor="middle" font-size="8px" fill="#555">Children: 0</text></g><g transform="translate(1000,164.70588235294116)"><rect width="60" height="30" x="-30" y="-15" fill="rgb(183, 184, 28)" stroke="#000" stroke-width="1"></rect><text dy="5" x="0" text-anchor="middle" font-size="10px" fill="#000">Unnamed page</text><text dy="20" x="0" text-anchor="middle" font-size="8px" fill="#555">Children: 0</text></g><g transform="translate(1000,172.54901960784312)"><rect width="60" height="30" x="-30" y="-15" fill="rgb(191, 185, 26)" stroke="#000" stroke-width="1"></rect><text dy="5" x="0" text-anchor="middle" font-size="10px" fill="#000">Unnamed page</text><text dy="20" x="0" text-anchor="middle" font-size="8px" fill="#555">Children: 0</text></g><g transform="translate(1000,180.39215686274508)"><rect width="60" height="30" x="-30" y="-15" fill="rgb(198, 186, 24)" stroke="#000" stroke-width="1"></rect><text dy="5" x="0" text-anchor="middle" font-size="10px" fill="#000">Unnamed page</text><text dy="20" x="0" text-anchor="middle" font-size="8px" fill="#555">Children: 0</text></g><g transform="translate(1000,188.23529411764704)"><rect width="60" height="30" x="-30" y="-15" fill="rgb(205, 187, 21)" stroke="#000" stroke-width="1"></rect><text dy="5" x="0" text-anchor="middle" font-size="10px" fill="#000">Unnamed page</text><text dy="20" x="0" text-anchor="middle" font-size="8px" fill="#555">Children: 0</text></g><g transform="translate(1000,196.078431372549)"><rect width="60" height="30" x="-30" y="-15" fill="rgb(212, 188, 19)" stroke="#000" stroke-width="1"></rect><text dy="5" x="0" text-anchor="middle" font-size="10px" fill="#000">Unnamed page</text><text dy="20" x="0" text-anchor="middle" font-size="8px" fill="#555">Children: 0</text></g><g transform="translate(1000,203.92156862745097)"><rect width="60" height="30" x="-30" y="-15" fill="rgb(219, 189, 17)" stroke="#000" stroke-width="1"></rect><text dy="5" x="0" text-anchor="middle" font-size="10px" fill="#000">Unnamed page</text><text dy="20" x="0" text-anchor="middle" font-size="8px" fill="#555">Children: 0</text></g><g transform="translate(1000,211.76470588235293)"><rect width="60" height="30" x="-30" y="-15" fill="rgb(226, 190, 15)" stroke="#000" stroke-width="1"></rect><text dy="5" x="0" text-anchor="middle" font-size="10px" fill="#000">Unnamed page</text><text dy="20" x="0" text-anchor="middle" font-size="8px" fill="#555">Children: 0</text></g><g transform="translate(1000,219.6078431372549)"><rect width="60" height="30" x="-30" y="-15" fill="rgb(234, 190, 13)" stroke="#000" stroke-width="1"></rect><text dy="5" x="0" text-anchor="middle" font-size="10px" fill="#000">Unnamed page</text><text dy="20" x="0" text-anchor="middle" font-size="8px" fill="#555">Children: 0</text></g><g transform="translate(1000,227.45098039215685)"><rect width="60" height="30" x="-30" y="-15" fill="rgb(241, 191, 11)" stroke="#000" stroke-width="1"></rect><text dy="5" x="0" text-anchor="middle" font-size="10px" fill="#000">Unnamed page</text><text dy="20" x="0" text-anchor="middle" font-size="8px" fill="#555">Children: 0</text></g><g transform="translate(1000,235.2941176470588)"><rect width="60" height="30" x="-30" y="-15" fill="rgb(248, 192, 9)" stroke="#000" stroke-width="1"></rect><text dy="5" x="0" text-anchor="middle" font-size="10px" fill="#000">Unnamed page</text><text dy="20" x="0" text-anchor="middle" font-size="8px" fill="#555">Children: 0</text></g><g transform="translate(1000,243.13725490196077)"><rect width="60" height="30" x="-30" y="-15" fill="rgb(255, 193, 7)" stroke="#000" stroke-width="1"></rect><text dy="5" x="0" text-anchor="middle" font-size="10px" fill="#000">Unnamed page</text><text dy="20" x="0" text-anchor="middle" font-size="8px" fill="#555">Children: 0</text></g><g transform="translate(1000,250.98039215686273)"><rect width="60" height="30" x="-30" y="-15" fill="rgb(255, 193, 7)" stroke="#000" stroke-width="1"></rect><text dy="5" x="0" text-anchor="middle" font-size="10px" fill="#000">Unnamed page</text><text dy="20" x="0" text-anchor="middle" font-size="8px" fill="#555">Children: 0</text></g><g transform="translate(1000,258.8235294117647)"><rect width="60" height="30" x="-30" y="-15" fill="rgb(255, 192, 7)" stroke="#000" stroke-width="1"></rect><text dy="5" x="0" text-anchor="middle" font-size="10px" fill="#000">Unnamed page</text><text dy="20" x="0" text-anchor="middle" font-size="8px" fill="#555">Children: 0</text></g><g transform="translate(1000,266.66666666666663)"><rect width="60" height="30" x="-30" y="-15" fill="rgb(255, 192, 8)" stroke="#000" stroke-width="1"></rect><text dy="5" x="0" text-anchor="middle" font-size="10px" fill="#000">Unnamed page</text><text dy="20" x="0" text-anchor="middle" font-size="8px" fill="#555">Children: 0</text></g><g transform="translate(1000,274.5098039215686)"><rect width="60" height="30" x="-30" y="-15" fill="rgb(255, 191, 8)" stroke="#000" stroke-width="1"></rect><text dy="5" x="0" text-anchor="middle" font-size="10px" fill="#000">Unnamed page</text><text dy="20" x="0" text-anchor="middle" font-size="8px" fill="#555">Children: 0</text></g><g transform="translate(1000,282.35294117647055)"><rect width="60" height="30" x="-30" y="-15" fill="rgb(254, 191, 8)" stroke="#000" stroke-width="1"></rect><text dy="5" x="0" text-anchor="middle" font-size="10px" fill="#000">Unnamed page</text><text dy="20" x="0" text-anchor="middle" font-size="8px" fill="#555">Children: 0</text></g><g transform="translate(1000,290.19607843137254)"><rect width="60" height="30" x="-30" y="-15" fill="rgb(254, 190, 8)" stroke="#000" stroke-width="1"></rect><text dy="5" x="0" text-anchor="middle" font-size="10px" fill="#000">Unnamed page</text><text dy="20" x="0" text-anchor="middle" font-size="8px" fill="#555">Children: 0</text></g><g transform="translate(1000,298.0392156862745)"><rect width="60" height="30" x="-30" y="-15" fill="rgb(254, 190, 8)" stroke="#000" stroke-width="1"></rect><text dy="5" x="0" text-anchor="middle" font-size="10px" fill="#000">Unnamed page</text><text dy="20" x="0" text-anchor="middle" font-size="8px" fill="#555">Children: 0</text></g><g transform="translate(1000,305.88235294117646)"><rect width="60" height="30" x="-30" y="-15" fill="rgb(254, 190, 8)" stroke="#000" stroke-width="1"></rect><text dy="5" x="0" text-anchor="middle" font-size="10px" fill="#000">Unnamed page</text><text dy="20" x="0" text-anchor="middle" font-size="8px" fill="#555">Children: 0</text></g><g transform="translate(1000,313.7254901960784)"><rect width="60" height="30" x="-30" y="-15" fill="rgb(254, 189, 9)" stroke="#000" stroke-width="1"></rect><text dy="5" x="0" text-anchor="middle" font-size="10px" fill="#000">Unnamed page</text><text dy="20" x="0" text-anchor="middle" font-size="8px" fill="#555">Children: 0</text></g><g transform="translate(1000,321.5686274509804)"><rect width="60" height="30" x="-30" y="-15" fill="rgb(254, 189, 9)" stroke="#000" stroke-width="1"></rect><text dy="5" x="0" text-anchor="middle" font-size="10px" fill="#000">Unnamed page</text><text dy="20" x="0" text-anchor="middle" font-size="8px" fill="#555">Children: 0</text></g><g transform="translate(1000,329.4117647058823)"><rect width="60" height="30" x="-30" y="-15" fill="rgb(254, 188, 9)" stroke="#000" stroke-width="1"></rect><text dy="5" x="0" text-anchor="middle" font-size="10px" fill="#000">Unnamed page</text><text dy="20" x="0" text-anchor="middle" font-size="8px" fill="#555">Children: 0</text></g><g transform="translate(1000,337.2549019607843)"><rect width="60" height="30" x="-30" y="-15" fill="rgb(254, 188, 9)" stroke="#000" stroke-width="1"></rect><text dy="5" x="0" text-anchor="middle" font-size="10px" fill="#000">Unnamed page</text><text dy="20" x="0" text-anchor="middle" font-size="8px" fill="#555">Children: 0</text></g><g transform="translate(1000,345.09803921568624)"><rect width="60" height="30" x="-30" y="-15" fill="rgb(254, 188, 9)" stroke="#000" stroke-width="1"></rect><text dy="5" x="0" text-anchor="middle" font-size="10px" fill="#000">Unnamed page</text><text dy="20" x="0" text-anchor="middle" font-size="8px" fill="#555">Children: 0</text></g><g transform="translate(1000,352.94117647058823)"><rect width="60" height="30" x="-30" y="-15" fill="rgb(254, 187, 10)" stroke="#000" stroke-width="1"></rect><text dy="5" x="0" text-anchor="middle" font-size="10px" fill="#000">Unnamed page</text><text dy="20" x="0" text-anchor="middle" font-size="8px" fill="#555">Children: 0</text></g><g transform="translate(1000,360.78431372549016)"><rect width="60" height="30" x="-30" y="-15" fill="rgb(253, 187, 10)" stroke="#000" stroke-width="1"></rect><text dy="5" x="0" text-anchor="middle" font-size="10px" fill="#000">Unnamed page</text><text dy="20" x="0" text-anchor="middle" font-size="8px" fill="#555">Children: 0</text></g><g transform="translate(1000,368.62745098039215)"><rect width="60" height="30" x="-30" y="-15" fill="rgb(253, 186, 10)" stroke="#000" stroke-width="1"></rect><text dy="5" x="0" text-anchor="middle" font-size="10px" fill="#000">Unnamed page</text><text dy="20" x="0" text-anchor="middle" font-size="8px" fill="#555">Children: 0</text></g><g transform="translate(1000,376.4705882352941)"><rect width="60" height="30" x="-30" y="-15" fill="rgb(253, 186, 10)" stroke="#000" stroke-width="1"></rect><text dy="5" x="0" text-anchor="middle" font-size="10px" fill="#000">Unnamed page</text><text dy="20" x="0" text-anchor="middle" font-size="8px" fill="#555">Children: 0</text></g><g transform="translate(1000,384.3137254901961)"><rect width="60" height="30" x="-30" y="-15" fill="rgb(253, 185, 10)" stroke="#000" stroke-width="1"></rect><text dy="5" x="0" text-anchor="middle" font-size="10px" fill="#000">Unnamed page</text><text dy="20" x="0" text-anchor="middle" font-size="8px" fill="#555">Children: 0</text></g><g transform="translate(1000,392.156862745098)"><rect width="60" height="30" x="-30" y="-15" fill="rgb(253, 185, 11)" stroke="#000" stroke-width="1"></rect><text dy="5" x="0" text-anchor="middle" font-size="10px" fill="#000">Unnamed page</text><text dy="20" x="0" text-anchor="middle" font-size="8px" fill="#555">Children: 0</text></g><g transform="translate(1000,400)"><rect width="60" height="30" x="-30" y="-15" fill="rgb(253, 185, 11)" stroke="#000" stroke-width="1"></rect><text dy="5" x="0" text-anchor="middle" font-size="10px" fill="#000">Unnamed page</text><text dy="20" x="0" text-anchor="middle" font-size="8px" fill="#555">Children: 0</text></g><g transform="translate(1000,407.84313725490193)"><rect width="60" height="30" x="-30" y="-15" fill="rgb(253, 184, 11)" stroke="#000" stroke-width="1"></rect><text dy="5" x="0" text-anchor="middle" font-size="10px" fill="#000">Unnamed page</text><text dy="20" x="0" text-anchor="middle" font-size="8px" fill="#555">Children: 0</text></g><g transform="translate(1000,415.6862745098039)"><rect width="60" height="30" x="-30" y="-15" fill="rgb(253, 184, 11)" stroke="#000" stroke-width="1"></rect><text dy="5" x="0" text-anchor="middle" font-size="10px" fill="#000">Unnamed page</text><text dy="20" x="0" text-anchor="middle" font-size="8px" fill="#555">Children: 0</text></g><g transform="translate(1000,423.52941176470586)"><rect width="60" height="30" x="-30" y="-15" fill="rgb(253, 183, 11)" stroke="#000" stroke-width="1"></rect><text dy="5" x="0" text-anchor="middle" font-size="10px" fill="#000">Unnamed page</text><text dy="20" x="0" text-anchor="middle" font-size="8px" fill="#555">Children: 0</text></g><g transform="translate(1000,431.37254901960785)"><rect width="60" height="30" x="-30" y="-15" fill="rgb(252, 183, 11)" stroke="#000" stroke-width="1"></rect><text dy="5" x="0" text-anchor="middle" font-size="10px" fill="#000">Unnamed page</text><text dy="20" x="0" text-anchor="middle" font-size="8px" fill="#555">Children: 0</text></g><g transform="translate(1000,439.2156862745098)"><rect width="60" height="30" x="-30" y="-15" fill="rgb(252, 183, 12)" stroke="#000" stroke-width="1"></rect><text dy="5" x="0" text-anchor="middle" font-size="10px" fill="#000">Unnamed page</text><text dy="20" x="0" text-anchor="middle" font-size="8px" fill="#555">Children: 0</text></g><g transform="translate(1000,447.05882352941177)"><rect width="60" height="30" x="-30" y="-15" fill="rgb(252, 182, 12)" stroke="#000" stroke-width="1"></rect><text dy="5" x="0" text-anchor="middle" font-size="10px" fill="#000">Unnamed page</text><text dy="20" x="0" text-anchor="middle" font-size="8px" fill="#555">Children: 0</text></g><g transform="translate(1000,454.9019607843137)"><rect width="60" height="30" x="-30" y="-15" fill="rgb(252, 182, 12)" stroke="#000" stroke-width="1"></rect><text dy="5" x="0" text-anchor="middle" font-size="10px" fill="#000">Unnamed page</text><text dy="20" x="0" text-anchor="middle" font-size="8px" fill="#555">Children: 0</text></g><g transform="translate(1000,462.7450980392157)"><rect width="60" height="30" x="-30" y="-15" fill="rgb(252, 181, 12)" stroke="#000" stroke-width="1"></rect><text dy="5" x="0" text-anchor="middle" font-size="10px" fill="#000">Unnamed page</text><text dy="20" x="0" text-anchor="middle" font-size="8px" fill="#555">Children: 0</text></g><g transform="translate(1000,470.5882352941176)"><rect width="60" height="30" x="-30" y="-15" fill="rgb(252, 181, 12)" stroke="#000" stroke-width="1"></rect><text dy="5" x="0" text-anchor="middle" font-size="10px" fill="#000">Unnamed page</text><text dy="20" x="0" text-anchor="middle" font-size="8px" fill="#555">Children: 0</text></g><g transform="translate(1000,478.4313725490196)"><rect width="60" height="30" x="-30" y="-15" fill="rgb(252, 180, 13)" stroke="#000" stroke-width="1"></rect><text dy="5" x="0" text-anchor="middle" font-size="10px" fill="#000">Unnamed page</text><text dy="20" x="0" text-anchor="middle" font-size="8px" fill="#555">Children: 0</text></g><g transform="translate(1000,486.27450980392155)"><rect width="60" height="30" x="-30" y="-15" fill="rgb(252, 180, 13)" stroke="#000" stroke-width="1"></rect><text dy="5" x="0" text-anchor="middle" font-size="10px" fill="#000">Unnamed page</text><text dy="20" x="0" text-anchor="middle" font-size="8px" fill="#555">Children: 0</text></g><g transform="translate(1000,494.11764705882354)"><rect width="60" height="30" x="-30" y="-15" fill="rgb(252, 180, 13)" stroke="#000" stroke-width="1"></rect><text dy="5" x="0" text-anchor="middle" font-size="10px" fill="#000">Unnamed page</text><text dy="20" x="0" text-anchor="middle" font-size="8px" fill="#555">Children: 0</text></g><g transform="translate(1000,501.96078431372547)"><rect width="60" height="30" x="-30" y="-15" fill="rgb(252, 179, 13)" stroke="#000" stroke-width="1"></rect><text dy="5" x="0" text-anchor="middle" font-size="10px" fill="#000">Unnamed page</text><text dy="20" x="0" text-anchor="middle" font-size="8px" fill="#555">Children: 0</text></g><g transform="translate(1000,509.8039215686274)"><rect width="60" height="30" x="-30" y="-15" fill="rgb(251, 179, 13)" stroke="#000" stroke-width="1"></rect><text dy="5" x="0" text-anchor="middle" font-size="10px" fill="#000">Unnamed page</text><text dy="20" x="0" text-anchor="middle" font-size="8px" fill="#555">Children: 0</text></g><g transform="translate(1000,517.6470588235294)"><rect width="60" height="30" x="-30" y="-15" fill="rgb(251, 178, 13)" stroke="#000" stroke-width="1"></rect><text dy="5" x="0" text-anchor="middle" font-size="10px" fill="#000">Unnamed page</text><text dy="20" x="0" text-anchor="middle" font-size="8px" fill="#555">Children: 0</text></g><g transform="translate(1000,525.4901960784314)"><rect width="60" height="30" x="-30" y="-15" fill="rgb(251, 178, 14)" stroke="#000" stroke-width="1"></rect><text dy="5" x="0" text-anchor="middle" font-size="10px" fill="#000">Unnamed page</text><text dy="20" x="0" text-anchor="middle" font-size="8px" fill="#555">Children: 0</text></g><g transform="translate(1000,533.3333333333333)"><rect width="60" height="30" x="-30" y="-15" fill="rgb(251, 178, 14)" stroke="#000" stroke-width="1"></rect><text dy="5" x="0" text-anchor="middle" font-size="10px" fill="#000">Unnamed page</text><text dy="20" x="0" text-anchor="middle" font-size="8px" fill="#555">Children: 0</text></g><g transform="translate(1000,541.1764705882352)"><rect width="60" height="30" x="-30" y="-15" fill="rgb(251, 177, 14)" stroke="#000" stroke-width="1"></rect><text dy="5" x="0" text-anchor="middle" font-size="10px" fill="#000">Unnamed page</text><text dy="20" x="0" text-anchor="middle" font-size="8px" fill="#555">Children: 0</text></g><g transform="translate(1000,549.0196078431372)"><rect width="60" height="30" x="-30" y="-15" fill="rgb(251, 177, 14)" stroke="#000" stroke-width="1"></rect><text dy="5" x="0" text-anchor="middle" font-size="10px" fill="#000">Unnamed page</text><text dy="20" x="0" text-anchor="middle" font-size="8px" fill="#555">Children: 0</text></g><g transform="translate(1000,556.8627450980392)"><rect width="60" height="30" x="-30" y="-15" fill="rgb(251, 176, 14)" stroke="#000" stroke-width="1"></rect><text dy="5" x="0" text-anchor="middle" font-size="10px" fill="#000">Unnamed page</text><text dy="20" x="0" text-anchor="middle" font-size="8px" fill="#555">Children: 0</text></g><g transform="translate(1000,564.7058823529411)"><rect width="60" height="30" x="-30" y="-15" fill="rgb(251, 176, 15)" stroke="#000" stroke-width="1"></rect><text dy="5" x="0" text-anchor="middle" font-size="10px" fill="#000">Unnamed page</text><text dy="20" x="0" text-anchor="middle" font-size="8px" fill="#555">Children: 0</text></g><g transform="translate(1000,572.5490196078431)"><rect width="60" height="30" x="-30" y="-15" fill="rgb(251, 175, 15)" stroke="#000" stroke-width="1"></rect><text dy="5" x="0" text-anchor="middle" font-size="10px" fill="#000">Unnamed page</text><text dy="20" x="0" text-anchor="middle" font-size="8px" fill="#555">Children: 0</text></g><g transform="translate(1000,580.3921568627451)"><rect width="60" height="30" x="-30" y="-15" fill="rgb(251, 175, 15)" stroke="#000" stroke-width="1"></rect><text dy="5" x="0" text-anchor="middle" font-size="10px" fill="#000">Unnamed page</text><text dy="20" x="0" text-anchor="middle" font-size="8px" fill="#555">Children: 0</text></g><g transform="translate(1000,588.2352941176471)"><rect width="60" height="30" x="-30" y="-15" fill="rgb(250, 175, 15)" stroke="#000" stroke-width="1"></rect><text dy="5" x="0" text-anchor="middle" font-size="10px" fill="#000">Unnamed page</text><text dy="20" x="0" text-anchor="middle" font-size="8px" fill="#555">Children: 0</text></g><g transform="translate(1000,596.078431372549)"><rect width="60" height="30" x="-30" y="-15" fill="rgb(250, 174, 15)" stroke="#000" stroke-width="1"></rect><text dy="5" x="0" text-anchor="middle" font-size="10px" fill="#000">Unnamed page</text><text dy="20" x="0" text-anchor="middle" font-size="8px" fill="#555">Children: 0</text></g><g transform="translate(1000,603.9215686274509)"><rect width="60" height="30" x="-30" y="-15" fill="rgb(250, 174, 16)" stroke="#000" stroke-width="1"></rect><text dy="5" x="0" text-anchor="middle" font-size="10px" fill="#000">Unnamed page</text><text dy="20" x="0" text-anchor="middle" font-size="8px" fill="#555">Children: 0</text></g><g transform="translate(1000,611.7647058823529)"><rect width="60" height="30" x="-30" y="-15" fill="rgb(250, 173, 16)" stroke="#000" stroke-width="1"></rect><text dy="5" x="0" text-anchor="middle" font-size="10px" fill="#000">Unnamed page</text><text dy="20" x="0" text-anchor="middle" font-size="8px" fill="#555">Children: 0</text></g><g transform="translate(1000,619.6078431372549)"><rect width="60" height="30" x="-30" y="-15" fill="rgb(250, 173, 16)" stroke="#000" stroke-width="1"></rect><text dy="5" x="0" text-anchor="middle" font-size="10px" fill="#000">Unnamed page</text><text dy="20" x="0" text-anchor="middle" font-size="8px" fill="#555">Children: 0</text></g><g transform="translate(1000,627.4509803921568)"><rect width="60" height="30" x="-30" y="-15" fill="rgb(250, 173, 16)" stroke="#000" stroke-width="1"></rect><text dy="5" x="0" text-anchor="middle" font-size="10px" fill="#000">Unnamed page</text><text dy="20" x="0" text-anchor="middle" font-size="8px" fill="#555">Children: 0</text></g><g transform="translate(1000,635.2941176470588)"><rect width="60" height="30" x="-30" y="-15" fill="rgb(250, 172, 16)" stroke="#000" stroke-width="1"></rect><text dy="5" x="0" text-anchor="middle" font-size="10px" fill="#000">Unnamed page</text><text dy="20" x="0" text-anchor="middle" font-size="8px" fill="#555">Children: 0</text></g><g transform="translate(1000,643.1372549019608)"><rect width="60" height="30" x="-30" y="-15" fill="rgb(250, 172, 16)" stroke="#000" stroke-width="1"></rect><text dy="5" x="0" text-anchor="middle" font-size="10px" fill="#000">Unnamed page</text><text dy="20" x="0" text-anchor="middle" font-size="8px" fill="#555">Children: 0</text></g><g transform="translate(1000,650.9803921568628)"><rect width="60" height="30" x="-30" y="-15" fill="rgb(250, 171, 17)" stroke="#000" stroke-width="1"></rect><text dy="5" x="0" text-anchor="middle" font-size="10px" fill="#000">Unnamed page</text><text dy="20" x="0" text-anchor="middle" font-size="8px" fill="#555">Children: 0</text></g><g transform="translate(1000,658.8235294117646)"><rect width="60" height="30" x="-30" y="-15" fill="rgb(249, 171, 17)" stroke="#000" stroke-width="1"></rect><text dy="5" x="0" text-anchor="middle" font-size="10px" fill="#000">Unnamed page</text><text dy="20" x="0" text-anchor="middle" font-size="8px" fill="#555">Children: 0</text></g><g transform="translate(1000,666.6666666666666)"><rect width="60" height="30" x="-30" y="-15" fill="rgb(249, 170, 17)" stroke="#000" stroke-width="1"></rect><text dy="5" x="0" text-anchor="middle" font-size="10px" fill="#000">Unnamed page</text><text dy="20" x="0" text-anchor="middle" font-size="8px" fill="#555">Children: 0</text></g><g transform="translate(1000,674.5098039215686)"><rect width="60" height="30" x="-30" y="-15" fill="rgb(249, 170, 17)" stroke="#000" stroke-width="1"></rect><text dy="5" x="0" text-anchor="middle" font-size="10px" fill="#000">Unnamed page</text><text dy="20" x="0" text-anchor="middle" font-size="8px" fill="#555">Children: 0</text></g><g transform="translate(1000,682.3529411764706)"><rect width="60" height="30" x="-30" y="-15" fill="rgb(249, 170, 17)" stroke="#000" stroke-width="1"></rect><text dy="5" x="0" text-anchor="middle" font-size="10px" fill="#000">Unnamed page</text><text dy="20" x="0" text-anchor="middle" font-size="8px" fill="#555">Children: 0</text></g><g transform="translate(1000,690.1960784313725)"><rect width="60" height="30" x="-30" y="-15" fill="rgb(249, 169, 18)" stroke="#000" stroke-width="1"></rect><text dy="5" x="0" text-anchor="middle" font-size="10px" fill="#000">Unnamed page</text><text dy="20" x="0" text-anchor="middle" font-size="8px" fill="#555">Children: 0</text></g><g transform="translate(1000,698.0392156862745)"><rect width="60" height="30" x="-30" y="-15" fill="rgb(249, 169, 18)" stroke="#000" stroke-width="1"></rect><text dy="5" x="0" text-anchor="middle" font-size="10px" fill="#000">Unnamed page</text><text dy="20" x="0" text-anchor="middle" font-size="8px" fill="#555">Children: 0</text></g><g transform="translate(1000,705.8823529411765)"><rect width="60" height="30" x="-30" y="-15" fill="rgb(249, 168, 18)" stroke="#000" stroke-width="1"></rect><text dy="5" x="0" text-anchor="middle" font-size="10px" fill="#000">Unnamed page</text><text dy="20" x="0" text-anchor="middle" font-size="8px" fill="#555">Children: 0</text></g><g transform="translate(1000,713.7254901960785)"><rect width="60" height="30" x="-30" y="-15" fill="rgb(249, 168, 18)" stroke="#000" stroke-width="1"></rect><text dy="5" x="0" text-anchor="middle" font-size="10px" fill="#000">Unnamed page</text><text dy="20" x="0" text-anchor="middle" font-size="8px" fill="#555">Children: 0</text></g><g transform="translate(1000,721.5686274509803)"><rect width="60" height="30" x="-30" y="-15" fill="rgb(249, 168, 18)" stroke="#000" stroke-width="1"></rect><text dy="5" x="0" text-anchor="middle" font-size="10px" fill="#000">Unnamed page</text><text dy="20" x="0" text-anchor="middle" font-size="8px" fill="#555">Children: 0</text></g><g transform="translate(1000,737.2549019607843)"><rect width="60" height="30" x="-30" y="-15" fill="rgb(249, 168, 18)" stroke="#000" stroke-width="1"></rect><text dy="5" x="0" text-anchor="middle" font-size="10px" fill="#000">Unnamed page</text><text dy="20" x="0" text-anchor="middle" font-size="8px" fill="#555">Children: 0</text></g><g transform="translate(1000,752.9411764705882)"><rect width="60" height="30" x="-30" y="-15" fill="rgb(249, 167, 18)" stroke="#000" stroke-width="1"></rect><text dy="5" x="0" text-anchor="middle" font-size="10px" fill="#000">Unnamed page</text><text dy="20" x="0" text-anchor="middle" font-size="8px" fill="#555">Children: 0</text></g><g transform="translate(1000,760.7843137254902)"><rect width="60" height="30" x="-30" y="-15" fill="rgb(249, 167, 18)" stroke="#000" stroke-width="1"></rect><text dy="5" x="0" text-anchor="middle" font-size="10px" fill="#000">Unnamed page</text><text dy="20" x="0" text-anchor="middle" font-size="8px" fill="#555">Children: 0</text></g><g transform="translate(1000,768.6274509803922)"><rect width="60" height="30" x="-30" y="-15" fill="rgb(249, 167, 18)" stroke="#000" stroke-width="1"></rect><text dy="5" x="0" text-anchor="middle" font-size="10px" fill="#000">Unnamed page</text><text dy="20" x="0" text-anchor="middle" font-size="8px" fill="#555">Children: 0</text></g><g transform="translate(1000,776.470588235294)"><rect width="60" height="30" x="-30" y="-15" fill="rgb(249, 167, 18)" stroke="#000" stroke-width="1"></rect><text dy="5" x="0" text-anchor="middle" font-size="10px" fill="#000">Unnamed page</text><text dy="20" x="0" text-anchor="middle" font-size="8px" fill="#555">Children: 0</text></g><g transform="translate(1000,784.313725490196)"><rect width="60" height="30" x="-30" y="-15" fill="rgb(249, 167, 18)" stroke="#000" stroke-width="1"></rect><text dy="5" x="0" text-anchor="middle" font-size="10px" fill="#000">Unnamed page</text><text dy="20" x="0" text-anchor="middle" font-size="8px" fill="#555">Children: 0</text></g><g transform="translate(1000,792.156862745098)"><rect width="60" height="30" x="-30" y="-15" fill="rgb(249, 167, 18)" stroke="#000" stroke-width="1"></rect><text dy="5" x="0" text-anchor="middle" font-size="10px" fill="#000">Unnamed page</text><text dy="20" x="0" text-anchor="middle" font-size="8px" fill="#555">Children: 0</text></g></g><text x="600" y="900" text-anchor="middle" font-size="14px" font-weight="bold" fill="#dc3545">Outdated Nodes: 0</text></svg>