<svg xmlns="http://www.w3.org/2000/svg" width="1200" height="1000" viewBox="0 0 1200 1000" style="background-color: rgb(255, 255, 255);"><g><path d="M0,374.468C250,374.468,250,348.936,500,348.936" stroke="#ccc"></path><path d="M0,374.468C250,374.468,250,357.447,500,357.447" stroke="#ccc"></path><path d="M0,374.468C250,374.468,250,365.957,500,365.957" stroke="#ccc"></path><path d="M0,374.468C250,374.468,250,374.468,500,374.468" stroke="#ccc"></path><path d="M0,374.468C250,374.468,250,382.979,500,382.979" stroke="#ccc"></path><path d="M0,374.468C250,374.468,250,391.489,500,391.489" stroke="#ccc"></path><path d="M0,374.468C250,374.468,250,400,500,400" stroke="#ccc"></path><path d="M500,400C750,400,750,4.255,1000,4.255" stroke="#ccc"></path><path d="M500,400C750,400,750,12.766,1000,12.766" stroke="#ccc"></path><path d="M500,400C750,400,750,21.277,1000,21.277" stroke="#ccc"></path><path d="M500,400C750,400,750,29.787,1000,29.787" stroke="#ccc"></path><path d="M500,400C750,400,750,38.298,1000,38.298" stroke="#ccc"></path><path d="M500,400C750,400,750,46.809,1000,46.809" stroke="#ccc"></path><path d="M500,400C750,400,750,55.319,1000,55.319" stroke="#ccc"></path><path d="M500,400C750,400,750,63.83,1000,63.83" stroke="#ccc"></path><path d="M500,400C750,400,750,72.34,1000,72.34" stroke="#ccc"></path><path d="M500,400C750,400,750,80.851,1000,80.851" stroke="#ccc"></path><path d="M500,400C750,400,750,89.362,1000,89.362" stroke="#ccc"></path><path d="M500,400C750,400,750,97.872,1000,97.872" stroke="#ccc"></path><path d="M500,400C750,400,750,106.383,1000,106.383" stroke="#ccc"></path><path d="M500,400C750,400,750,114.894,1000,114.894" stroke="#ccc"></path><path d="M500,400C750,400,750,123.404,1000,123.404" stroke="#ccc"></path><path d="M500,400C750,400,750,131.915,1000,131.915" stroke="#ccc"></path><path d="M500,400C750,400,750,140.426,1000,140.426" stroke="#ccc"></path><path d="M500,400C750,400,750,148.936,1000,148.936" stroke="#ccc"></path><path d="M500,400C750,400,750,157.447,1000,157.447" stroke="#ccc"></path><path d="M500,400C750,400,750,165.957,1000,165.957" stroke="#ccc"></path><path d="M500,400C750,400,750,174.468,1000,174.468" stroke="#ccc"></path><path d="M500,400C750,400,750,182.979,1000,182.979" stroke="#ccc"></path><path d="M500,400C750,400,750,191.489,1000,191.489" stroke="#ccc"></path><path d="M500,400C750,400,750,200,1000,200" stroke="#ccc"></path><path d="M500,400C750,400,750,208.511,1000,208.511" stroke="#ccc"></path><path d="M500,400C750,400,750,217.021,1000,217.021" stroke="#ccc"></path><path d="M500,400C750,400,750,225.532,1000,225.532" stroke="#ccc"></path><path d="M500,400C750,400,750,234.043,1000,234.043" stroke="#ccc"></path><path d="M500,400C750,400,750,242.553,1000,242.553" stroke="#ccc"></path><path d="M500,400C750,400,750,251.064,1000,251.064" stroke="#ccc"></path><path d="M500,400C750,400,750,259.574,1000,259.574" stroke="#ccc"></path><path d="M500,400C750,400,750,268.085,1000,268.085" stroke="#ccc"></path><path d="M500,400C750,400,750,276.596,1000,276.596" stroke="#ccc"></path><path d="M500,400C750,400,750,285.106,1000,285.106" stroke="#ccc"></path><path d="M500,400C750,400,750,293.617,1000,293.617" stroke="#ccc"></path><path d="M500,400C750,400,750,302.128,1000,302.128" stroke="#ccc"></path><path d="M500,400C750,400,750,310.638,1000,310.638" stroke="#ccc"></path><path d="M500,400C750,400,750,319.149,1000,319.149" stroke="#ccc"></path><path d="M500,400C750,400,750,327.66,1000,327.66" stroke="#ccc"></path><path d="M500,400C750,400,750,336.17,1000,336.17" stroke="#ccc"></path><path d="M500,400C750,400,750,344.681,1000,344.681" stroke="#ccc"></path><path d="M500,400C750,400,750,353.191,1000,353.191" stroke="#ccc"></path><path d="M500,400C750,400,750,361.702,1000,361.702" stroke="#ccc"></path><path d="M500,400C750,400,750,370.213,1000,370.213" stroke="#ccc"></path><path d="M500,400C750,400,750,378.723,1000,378.723" stroke="#ccc"></path><path d="M500,400C750,400,750,387.234,1000,387.234" stroke="#ccc"></path><path d="M500,400C750,400,750,395.745,1000,395.745" stroke="#ccc"></path><path d="M500,400C750,400,750,404.255,1000,404.255" stroke="#ccc"></path><path d="M500,400C750,400,750,412.766,1000,412.766" stroke="#ccc"></path><path d="M500,400C750,400,750,421.277,1000,421.277" stroke="#ccc"></path><path d="M500,400C750,400,750,429.787,1000,429.787" stroke="#ccc"></path><path d="M500,400C750,400,750,438.298,1000,438.298" stroke="#ccc"></path><path d="M500,400C750,400,750,446.809,1000,446.809" stroke="#ccc"></path><path d="M500,400C750,400,750,455.319,1000,455.319" stroke="#ccc"></path><path d="M500,400C750,400,750,463.83,1000,463.83" stroke="#ccc"></path><path d="M500,400C750,400,750,472.34,1000,472.34" stroke="#ccc"></path><path d="M500,400C750,400,750,480.851,1000,480.851" stroke="#ccc"></path><path d="M500,400C750,400,750,489.362,1000,489.362" stroke="#ccc"></path><path d="M500,400C750,400,750,497.872,1000,497.872" stroke="#ccc"></path><path d="M500,400C750,400,750,506.383,1000,506.383" stroke="#ccc"></path><path d="M500,400C750,400,750,514.894,1000,514.894" stroke="#ccc"></path><path d="M500,400C750,400,750,523.404,1000,523.404" stroke="#ccc"></path><path d="M500,400C750,400,750,531.915,1000,531.915" stroke="#ccc"></path><path d="M500,400C750,400,750,540.426,1000,540.426" stroke="#ccc"></path><path d="M500,400C750,400,750,548.936,1000,548.936" stroke="#ccc"></path><path d="M500,400C750,400,750,557.447,1000,557.447" stroke="#ccc"></path><path d="M500,400C750,400,750,565.957,1000,565.957" stroke="#ccc"></path><path d="M500,400C750,400,750,574.468,1000,574.468" stroke="#ccc"></path><path d="M500,400C750,400,750,582.979,1000,582.979" stroke="#ccc"></path><path d="M500,400C750,400,750,591.489,1000,591.489" stroke="#ccc"></path><path d="M500,400C750,400,750,600,1000,600" stroke="#ccc"></path><path d="M500,400C750,400,750,608.511,1000,608.511" stroke="#ccc"></path><path d="M500,400C750,400,750,617.021,1000,617.021" stroke="#ccc"></path><path d="M500,400C750,400,750,625.532,1000,625.532" stroke="#ccc"></path><path d="M500,400C750,400,750,634.043,1000,634.043" stroke="#ccc"></path><path d="M500,400C750,400,750,642.553,1000,642.553" stroke="#ccc"></path><path d="M500,400C750,400,750,651.064,1000,651.064" stroke="#ccc"></path><path d="M500,400C750,400,750,659.574,1000,659.574" stroke="#ccc"></path><path d="M500,400C750,400,750,668.085,1000,668.085" stroke="#ccc"></path><path d="M500,400C750,400,750,676.596,1000,676.596" stroke="#ccc"></path><path d="M500,400C750,400,750,685.106,1000,685.106" stroke="#ccc"></path><path d="M500,400C750,400,750,693.617,1000,693.617" stroke="#ccc"></path><path d="M500,400C750,400,750,702.128,1000,702.128" stroke="#ccc"></path><path d="M500,400C750,400,750,710.638,1000,710.638" stroke="#ccc"></path><path d="M500,400C750,400,750,719.149,1000,719.149" stroke="#ccc"></path><path d="M500,400C750,400,750,727.66,1000,727.66" stroke="#ccc"></path><path d="M500,400C750,400,750,736.17,1000,736.17" stroke="#ccc"></path><path d="M500,400C750,400,750,744.681,1000,744.681" stroke="#ccc"></path><path d="M500,400C750,400,750,753.191,1000,753.191" stroke="#ccc"></path><path d="M500,400C750,400,750,761.702,1000,761.702" stroke="#ccc"></path><path d="M500,400C750,400,750,770.213,1000,770.213" stroke="#ccc"></path><path d="M500,400C750,400,750,778.723,1000,778.723" stroke="#ccc"></path><path d="M500,400C750,400,750,787.234,1000,787.234" stroke="#ccc"></path><path d="M500,400C750,400,750,795.745,1000,795.745" stroke="#ccc"></path></g><g><g transform="translate(0,374.468085106383)"><text>Workspace Root</text></g><g transform="translate(500,348.93617021276594)"><text>Unnamed page</text></g><g transform="translate(500,357.4468085106383)"><text>Unnamed page</text></g><g transform="translate(500,365.9574468085106)"><text>Unnamed page</text></g><g transform="translate(500,374.468085106383)"><text>Unnamed page</text></g><g transform="translate(500,382.97872340425533)"><text>Unnamed page</text></g><g transform="translate(500,391.48936170212767)"><text>Unnamed page</text></g><g transform="translate(500,400)"><text>Database b64a323a-7354-45be-bc1d-18c13cecd930</text></g><g transform="translate(1000,4.25531914893617)"><text>Unnamed page</text></g><g transform="translate(1000,12.76595744680851)"><text>Unnamed page</text></g><g transform="translate(1000,21.27659574468085)"><text>Unnamed page</text></g><g transform="translate(1000,29.78723404255319)"><text>Unnamed page</text></g><g transform="translate(1000,38.29787234042553)"><text>Unnamed page</text></g><g transform="translate(1000,46.808510638297875)"><text>Unnamed page</text></g><g transform="translate(1000,55.31914893617021)"><text>Unnamed page</text></g><g transform="translate(1000,63.829787234042556)"><text>Unnamed page</text></g><g transform="translate(1000,72.34042553191489)"><text>Unnamed page</text></g><g transform="translate(1000,80.85106382978724)"><text>Unnamed page</text></g><g transform="translate(1000,89.36170212765957)"><text>Unnamed page</text></g><g transform="translate(1000,97.87234042553192)"><text>Unnamed page</text></g><g transform="translate(1000,106.38297872340425)"><text>Unnamed page</text></g><g transform="translate(1000,114.8936170212766)"><text>Unnamed page</text></g><g transform="translate(1000,123.40425531914893)"><text>Unnamed page</text></g><g transform="translate(1000,131.91489361702128)"><text>Unnamed page</text></g><g transform="translate(1000,140.4255319148936)"><text>Unnamed page</text></g><g transform="translate(1000,148.93617021276594)"><text>Unnamed page</text></g><g transform="translate(1000,157.4468085106383)"><text>Unnamed page</text></g><g transform="translate(1000,165.95744680851064)"><text>Unnamed page</text></g><g transform="translate(1000,174.46808510638297)"><text>Unnamed page</text></g><g transform="translate(1000,182.9787234042553)"><text>Unnamed page</text></g><g transform="translate(1000,191.48936170212767)"><text>Unnamed page</text></g><g transform="translate(1000,200)"><text>Unnamed page</text></g><g transform="translate(1000,208.51063829787233)"><text>Unnamed page</text></g><g transform="translate(1000,217.02127659574467)"><text>Unnamed page</text></g><g transform="translate(1000,225.53191489361703)"><text>Unnamed page</text></g><g transform="translate(1000,234.04255319148936)"><text>Unnamed page</text></g><g transform="translate(1000,242.5531914893617)"><text>Unnamed page</text></g><g transform="translate(1000,251.06382978723403)"><text>Unnamed page</text></g><g transform="translate(1000,259.5744680851064)"><text>Unnamed page</text></g><g transform="translate(1000,268.0851063829787)"><text>Unnamed page</text></g><g transform="translate(1000,276.59574468085106)"><text>Unnamed page</text></g><g transform="translate(1000,285.1063829787234)"><text>Unnamed page</text></g><g transform="translate(1000,293.6170212765957)"><text>Unnamed page</text></g><g transform="translate(1000,302.12765957446805)"><text>Unnamed page</text></g><g transform="translate(1000,310.63829787234044)"><text>Unnamed page</text></g><g transform="translate(1000,319.1489361702128)"><text>Unnamed page</text></g><g transform="translate(1000,327.6595744680851)"><text>Unnamed page</text></g><g transform="translate(1000,336.17021276595744)"><text>Unnamed page</text></g><g transform="translate(1000,344.6808510638298)"><text>Unnamed page</text></g><g transform="translate(1000,353.1914893617021)"><text>Unnamed page</text></g><g transform="translate(1000,361.70212765957444)"><text>Unnamed page</text></g><g transform="translate(1000,370.2127659574468)"><text>Unnamed page</text></g><g transform="translate(1000,378.72340425531917)"><text>Unnamed page</text></g><g transform="translate(1000,387.2340425531915)"><text>Unnamed page</text></g><g transform="translate(1000,395.74468085106383)"><text>Unnamed page</text></g><g transform="translate(1000,404.25531914893617)"><text>Unnamed page</text></g><g transform="translate(1000,412.7659574468085)"><text>Unnamed page</text></g><g transform="translate(1000,421.27659574468083)"><text>Unnamed page</text></g><g transform="translate(1000,429.78723404255317)"><text>Unnamed page</text></g><g transform="translate(1000,438.2978723404255)"><text>Unnamed page</text></g><g transform="translate(1000,446.8085106382979)"><text>Unnamed page</text></g><g transform="translate(1000,455.3191489361702)"><text>Unnamed page</text></g><g transform="translate(1000,463.82978723404256)"><text>Unnamed page</text></g><g transform="translate(1000,472.3404255319149)"><text>Unnamed page</text></g><g transform="translate(1000,480.8510638297872)"><text>Unnamed page</text></g><g transform="translate(1000,489.36170212765956)"><text>Unnamed page</text></g><g transform="translate(1000,497.8723404255319)"><text>Unnamed page</text></g><g transform="translate(1000,506.3829787234042)"><text>Unnamed page</text></g><g transform="translate(1000,514.8936170212766)"><text>Unnamed page</text></g><g transform="translate(1000,523.4042553191489)"><text>Unnamed page</text></g><g transform="translate(1000,531.9148936170212)"><text>Unnamed page</text></g><g transform="translate(1000,540.4255319148936)"><text>Unnamed page</text></g><g transform="translate(1000,548.936170212766)"><text>Unnamed page</text></g><g transform="translate(1000,557.4468085106383)"><text>Unnamed page</text></g><g transform="translate(1000,565.9574468085107)"><text>Unnamed page</text></g><g transform="translate(1000,574.468085106383)"><text>Unnamed page</text></g><g transform="translate(1000,582.9787234042553)"><text>Unnamed page</text></g><g transform="translate(1000,591.4893617021277)"><text>Unnamed page</text></g><g transform="translate(1000,600)"><text>Unnamed page</text></g><g transform="translate(1000,608.5106382978723)"><text>Unnamed page</text></g><g transform="translate(1000,617.0212765957447)"><text>Unnamed page</text></g><g transform="translate(1000,625.531914893617)"><text>Unnamed page</text></g><g transform="translate(1000,634.0425531914893)"><text>Unnamed page</text></g><g transform="translate(1000,642.5531914893617)"><text>Unnamed page</text></g><g transform="translate(1000,651.063829787234)"><text>Unnamed page</text></g><g transform="translate(1000,659.5744680851063)"><text>Unnamed page</text></g><g transform="translate(1000,668.0851063829787)"><text>Unnamed page</text></g><g transform="translate(1000,676.595744680851)"><text>Unnamed page</text></g><g transform="translate(1000,685.1063829787234)"><text>Unnamed page</text></g><g transform="translate(1000,693.6170212765958)"><text>Unnamed page</text></g><g transform="translate(1000,702.1276595744681)"><text>Unnamed page</text></g><g transform="translate(1000,710.6382978723404)"><text>Unnamed page</text></g><g transform="translate(1000,719.1489361702128)"><text>Unnamed page</text></g><g transform="translate(1000,727.6595744680851)"><text>Unnamed page</text></g><g transform="translate(1000,736.1702127659574)"><text>Unnamed page</text></g><g transform="translate(1000,744.6808510638298)"><text>Unnamed page</text></g><g transform="translate(1000,753.1914893617021)"><text>Unnamed page</text></g><g transform="translate(1000,761.7021276595744)"><text>Unnamed page</text></g><g transform="translate(1000,770.2127659574468)"><text>Unnamed page</text></g><g transform="translate(1000,778.7234042553191)"><text>Unnamed page</text></g><g transform="translate(1000,787.2340425531914)"><text>Unnamed page</text></g><g transform="translate(1000,795.7446808510638)"><text>Unnamed page</text></g></g></svg>